<?xml version="1.0" encoding="iso-8859-1"?>
<!-- Generator: Adobe Illustrator 21.1.0, SVG Export Plug-In . SVG Version: 6.00 Build 0)  -->
<svg version="1.1" id="Layer_1" xmlns="http://www.w3.org/2000/svg" xmlns:xlink="http://www.w3.org/1999/xlink" x="0px" y="0px"
	 viewBox="-49 141 512 512" style="enable-background:new -49 141 512 512;" xml:space="preserve">
<g>
	<g>
		<path d="M2.37,383.814c0-1.442-0.769-2.114-2.114-2.114h-3.941v-7.977h8.938c4.229,0,6.151,1.826,6.151,5.382v1.826
			c0,1.537-0.096,2.787-0.096,2.787H11.5c2.307-5.67,9.034-11.148,16.626-11.148c8.265,0,12.974,3.748,14.608,11.052h0.192
			c2.691-5.862,9.418-11.052,17.298-11.052c10.955,0,16.049,6.247,16.049,18.644v21.047c0,1.442,0.769,2.114,2.115,2.114h3.94v7.977
			h-9.226c-4.325,0-6.151-1.826-6.151-6.151v-22.969c0-6.823-1.346-12.205-8.553-12.205c-6.727,0-11.917,5.863-13.646,12.493
			c-0.481,2.018-0.769,4.133-0.769,6.632v22.2h-9.322v-29.119c0-6.343-0.961-12.205-8.36-12.205c-7.112,0-12.11,5.958-13.935,12.878
			c-0.481,1.922-0.673,4.037-0.673,6.247v22.2H2.37V383.814z"/>
		<path d="M94.636,434.46c3.748,0,6.727-2.691,8.553-7.015l2.211-5.286l-16.626-38.537c-0.673-1.537-1.537-1.922-3.075-1.922h-1.153
			v-7.977h5.477c3.941,0,5.382,1.057,6.92,4.901l11.052,27.389c0.961,2.499,1.73,5.863,1.73,5.863h0.192
			c0,0,0.673-3.363,1.634-5.863l10.091-27.389c1.442-3.844,3.172-4.901,7.112-4.901h5.574v7.977h-1.249
			c-1.537,0-2.402,0.384-3.075,1.922l-19.22,47.475c-2.979,7.496-8.842,11.436-15.665,11.436c-7.208,0-11.436-4.804-11.436-4.804
			l3.844-6.728C87.524,431.097,90.504,434.46,94.636,434.46z"/>
		<path d="M144.227,381.219h-6.343v-7.496h6.535v-13.358h9.129v13.358h11.629v7.496h-11.629v22.296
			c0,9.706,6.727,10.956,10.283,10.956c1.346,0,2.211-0.192,2.211-0.192v8.265c0,0-1.249,0.192-3.268,0.192
			c-6.151,0-18.548-1.922-18.548-18.164V381.219z"/>
		<path d="M178.153,383.814c0-1.442-0.769-2.114-2.114-2.114h-3.94v-7.977h9.129c4.325,0,6.151,1.826,6.151,6.151v32.387
			c0,1.442,0.769,2.114,2.114,2.114h3.941v7.977h-9.13c-4.325,0-6.151-1.826-6.151-6.151V383.814z M178.345,354.503h8.361v9.706
			h-8.361V354.503z"/>
		<path d="M225.532,372.57c5.863,0,17.491,2.403,17.491,10.667v4.998h-8.458v-2.691c0-3.459-5.477-4.997-9.034-4.997
			c-9.514,0-16.626,7.112-16.626,17.395c0,11.052,8.073,17.298,17.107,17.298c9.129,0,15.088-6.727,15.088-6.727l4.037,6.631
			c0,0-6.92,8.361-19.798,8.361c-15.28,0-25.948-10.86-25.948-25.468C199.392,383.718,209.868,372.57,225.532,372.57z"/>
		<path d="M254.655,364.593c0-1.442-0.769-2.114-2.114-2.114H248.6v-7.977h9.226c4.325,0,6.151,1.249,6.151,5.574v31.522h4.325
			c1.73,0,3.845-0.48,5.094-2.114l11.244-15.761h10.668l-13.167,18.067c-2.211,2.979-3.651,3.652-3.651,3.652v0.192
			c0,0,1.634,0.577,3.267,3.651l7.208,13.167c0.769,1.537,1.73,1.922,4.133,1.922h2.978v7.977h-6.727
			c-4.516,0-5.958-0.769-8.073-4.517l-8.84-16.338c-1.057-1.826-3.268-2.018-4.806-2.018h-3.652v22.873h-9.322V364.593z"/>
		<path d="M324.332,372.57c13.646,0,20.95,10.187,20.95,22.776c0,1.249-0.288,3.844-0.288,3.844h-35.462
			c0.576,10.379,8.073,16.241,16.722,16.241c8.361,0,14.222-5.67,14.222-5.67l4.037,6.631c0,0-7.208,7.112-18.74,7.112
			c-15.377,0-25.852-11.052-25.852-25.468C299.921,382.565,310.493,372.57,324.332,372.57z M335.673,392.367
			c-0.289-8.073-5.383-12.398-11.437-12.398c-7.111,0-12.877,4.325-14.319,12.398H335.673z"/>
		<path d="M358.066,381.219h-6.342v-7.496h6.535v-13.358h9.13v13.358h11.627v7.496h-11.627v22.296
			c0,9.706,6.727,10.956,10.282,10.956c1.345,0,2.211-0.192,2.211-0.192v8.265c0,0-1.249,0.192-3.268,0.192
			c-6.151,0-18.548-1.922-18.548-18.164V381.219z"/>
	</g>
	<g>
		<path d="M402.332,364.666v4.797h-0.768v-11.01h2.621c1.366,0,2.375,0.252,3.027,0.757c0.652,0.505,0.979,1.264,0.979,2.278
			c0,0.738-0.195,1.361-0.584,1.868c-0.389,0.507-0.98,0.871-1.773,1.092l2.99,5.015h-0.919l-2.839-4.797H402.332z M402.332,364.003
			h2.101c0.929,0,1.649-0.207,2.161-0.621s0.768-1.025,0.768-1.834c0-0.838-0.251-1.448-0.753-1.83
			c-0.502-0.381-1.321-0.572-2.455-0.572h-1.822V364.003z"/>
	</g>
	<g>
		<path d="M405.194,376.449c-6.887,0-12.492-5.603-12.492-12.491s5.604-12.491,12.492-12.491s12.49,5.603,12.49,12.491
			S412.082,376.449,405.194,376.449z M405.194,352.784c-6.162,0-11.175,5.013-11.175,11.174c0,6.162,5.013,11.174,11.175,11.174
			c6.161,0,11.173-5.013,11.173-11.174C416.368,357.796,411.355,352.784,405.194,352.784z"/>
	</g>
</g>
</svg>
