<svg width="580" height="130" xmlns="http://www.w3.org/2000/svg">
 <!-- Created with Method Draw - http://github.com/duopixel/Method-Draw/ -->

 <g>
  <title>background</title>
  <rect fill="none" id="canvas_background" height="132" width="582" y="-1" x="-1"/>
  <g display="none" overflow="visible" y="0" x="0" height="100%" width="100%" id="canvasGrid">
   <rect fill="url(#gridpattern)" stroke-width="0" y="0" x="0" height="100%" width="100%"/>
  </g>
 </g>
 <g>
  <title>Layer 1</title>
  <g stroke="null" id="svg_19">
   <g fill="white" stroke="null" transform="matrix(1.3699960671744686,0,0,1.3699960671744686,-5214.229581746503,-4803.96908699653) " id="svg_5">
    <g stroke="null" id="svg_6">
     <path stroke="null" id="svg_7" d="m3813.432679,3540.24588c0,-1.442 -0.769,-2.114 -2.114,-2.114l-3.941,0l0,-7.977l8.938,0c4.229,0 6.151,1.826 6.151,5.382l0,1.826c0,1.537 -0.096,2.787 -0.096,2.787l0.192,0c2.307,-5.67 9.034,-11.148 16.626,-11.148c8.265,0 12.974,3.748 14.608,11.052l0.192,0c2.691,-5.862 9.418,-11.052 17.298,-11.052c10.955,0 16.049,6.247 16.049,18.644l0,21.047c0,1.442 0.769,2.114 2.115,2.114l3.94,0l0,7.977l-9.226,0c-4.325,0 -6.151,-1.826 -6.151,-6.151l0,-22.969c0,-6.823 -1.346,-12.205 -8.553,-12.205c-6.727,0 -11.917,5.863 -13.646,12.493c-0.481,2.018 -0.769,4.133 -0.769,6.632l0,22.2l-9.322,0l0,-29.119c0,-6.343 -0.961,-12.205 -8.36,-12.205c-7.112,0 -12.11,5.958 -13.935,12.878c-0.481,1.922 -0.673,4.037 -0.673,6.247l0,22.2l-9.323,0l0,-38.539z"/>
     <path stroke="null" id="svg_8" d="m3905.698679,3590.89188c3.748,0 6.727,-2.691 8.553,-7.015l2.211,-5.286l-16.626,-38.537c-0.673,-1.537 -1.537,-1.922 -3.075,-1.922l-1.153,0l0,-7.977l5.477,0c3.941,0 5.382,1.057 6.92,4.901l11.052,27.389c0.961,2.499 1.73,5.863 1.73,5.863l0.192,0c0,0 0.673,-3.363 1.634,-5.863l10.091,-27.389c1.442,-3.844 3.172,-4.901 7.112,-4.901l5.574,0l0,7.977l-1.249,0c-1.537,0 -2.402,0.384 -3.075,1.922l-19.22,47.475c-2.979,7.496 -8.842,11.436 -15.665,11.436c-7.208,0 -11.436,-4.804 -11.436,-4.804l3.844,-6.728c-0.003,0.096 2.977,3.459 7.109,3.459z"/>
     <path stroke="null" id="svg_9" d="m3955.289679,3537.65088l-6.343,0l0,-7.496l6.535,0l0,-13.358l9.129,0l0,13.358l11.629,0l0,7.496l-11.629,0l0,22.296c0,9.706 6.727,10.956 10.283,10.956c1.346,0 2.211,-0.192 2.211,-0.192l0,8.265c0,0 -1.249,0.192 -3.268,0.192c-6.151,0 -18.548,-1.922 -18.548,-18.164l0,-23.353l0.001,0z"/>
     <path stroke="null" id="svg_10" d="m3989.215679,3540.24588c0,-1.442 -0.769,-2.114 -2.114,-2.114l-3.94,0l0,-7.977l9.129,0c4.325,0 6.151,1.826 6.151,6.151l0,32.387c0,1.442 0.769,2.114 2.114,2.114l3.941,0l0,7.977l-9.13,0c-4.325,0 -6.151,-1.826 -6.151,-6.151l0,-32.387zm0.192,-29.311l8.361,0l0,9.706l-8.361,0l0,-9.706z"/>
     <path stroke="null" id="svg_11" d="m4036.594679,3529.00188c5.863,0 17.491,2.403 17.491,10.667l0,4.998l-8.458,0l0,-2.691c0,-3.459 -5.477,-4.997 -9.034,-4.997c-9.514,0 -16.626,7.112 -16.626,17.395c0,11.052 8.073,17.298 17.107,17.298c9.129,0 15.088,-6.727 15.088,-6.727l4.037,6.631c0,0 -6.92,8.361 -19.798,8.361c-15.28,0 -25.948,-10.86 -25.948,-25.468c0.001,-14.319 10.477,-25.467 26.141,-25.467z"/>
     <path stroke="null" id="svg_12" d="m4065.717679,3521.02488c0,-1.442 -0.769,-2.114 -2.114,-2.114l-3.941,0l0,-7.977l9.226,0c4.325,0 6.151,1.249 6.151,5.574l0,31.522l4.325,0c1.73,0 3.845,-0.48 5.094,-2.114l11.244,-15.761l10.668,0l-13.167,18.067c-2.211,2.979 -3.651,3.652 -3.651,3.652l0,0.192c0,0 1.634,0.577 3.267,3.651l7.208,13.167c0.769,1.537 1.73,1.922 4.133,1.922l2.978,0l0,7.977l-6.727,0c-4.516,0 -5.958,-0.769 -8.073,-4.517l-8.84,-16.338c-1.057,-1.826 -3.268,-2.018 -4.806,-2.018l-3.652,0l0,22.873l-9.322,0l0,-57.758l-0.001,0z"/>
     <path stroke="null" id="svg_13" d="m4135.394679,3529.00188c13.646,0 20.95,10.187 20.95,22.776c0,1.249 -0.288,3.844 -0.288,3.844l-35.462,0c0.576,10.379 8.073,16.241 16.722,16.241c8.361,0 14.222,-5.67 14.222,-5.67l4.037,6.631c0,0 -7.208,7.112 -18.74,7.112c-15.377,0 -25.852,-11.052 -25.852,-25.468c0,-15.471 10.572,-25.466 24.411,-25.466zm11.341,19.797c-0.289,-8.073 -5.383,-12.398 -11.437,-12.398c-7.111,0 -12.877,4.325 -14.319,12.398l25.756,0z"/>
     <path stroke="null" id="svg_14" d="m4169.128679,3537.65088l-6.342,0l0,-7.496l6.535,0l0,-13.358l9.13,0l0,13.358l11.627,0l0,7.496l-11.627,0l0,22.296c0,9.706 6.727,10.956 10.282,10.956c1.345,0 2.211,-0.192 2.211,-0.192l0,8.265c0,0 -1.249,0.192 -3.268,0.192c-6.151,0 -18.548,-1.922 -18.548,-18.164l0,-23.353z"/>
    </g>
    <g stroke="null" id="svg_15">
     <path stroke="null" id="svg_16" d="m4213.394679,3521.09788l0,4.797l-0.768,0l0,-11.01l2.621,0c1.366,0 2.375,0.252 3.027,0.757c0.652,0.505 0.979,1.264 0.979,2.278c0,0.738 -0.195,1.361 -0.584,1.868c-0.389,0.507 -0.98,0.871 -1.773,1.092l2.99,5.015l-0.919,0l-2.839,-4.797l-2.734,0zm0,-0.663l2.101,0c0.929,0 1.649,-0.207 2.161,-0.621s0.768,-1.025 0.768,-1.834c0,-0.838 -0.251,-1.448 -0.753,-1.83c-0.502,-0.381 -1.321,-0.572 -2.455,-0.572l-1.822,0l0,4.857z"/>
    </g>
    <g stroke="null" id="svg_17">
     <path stroke="null" id="svg_18" d="m4216.256679,3532.88088c-6.887,0 -12.492,-5.603 -12.492,-12.491s5.604,-12.491 12.492,-12.491s12.49,5.603 12.49,12.491s-5.602,12.491 -12.49,12.491zm0,-23.665c-6.162,0 -11.175,5.013 -11.175,11.174c0,6.162 5.013,11.174 11.175,11.174c6.161,0 11.173,-5.013 11.173,-11.174c0.001,-6.162 -5.012,-11.174 -11.173,-11.174z"/>
    </g>
   </g>
  </g>
 </g>
</svg>